<mxfile host="app.diagrams.net" agent="Mozilla/5.0 (Windows NT 10.0; Win64; x64) AppleWebKit/537.36 (KHTML, like Gecko) Chrome/130.0.0.0 Safari/537.36" version="24.8.3">
  <diagram id="R2lEEEUBdFMjLlhIrx00" name="Page-1">
    <mxGraphModel dx="2549" dy="1291" grid="1" gridSize="10" guides="1" tooltips="1" connect="1" arrows="1" fold="1" page="1" pageScale="1" pageWidth="1100" pageHeight="850" math="0" shadow="0" extFonts="Permanent Marker^https://fonts.googleapis.com/css?family=Permanent+Marker">
      <root>
        <mxCell id="0" />
        <mxCell id="1" parent="0" />
        <mxCell id="H6UfE3asRL7jeOaHzusS-1" value="USER" style="rounded=0;whiteSpace=wrap;html=1;" vertex="1" parent="1">
          <mxGeometry x="600" y="80" width="120" height="60" as="geometry" />
        </mxCell>
        <mxCell id="H6UfE3asRL7jeOaHzusS-2" value="TUTOR" style="rounded=0;whiteSpace=wrap;html=1;" vertex="1" parent="1">
          <mxGeometry x="160" y="80" width="120" height="60" as="geometry" />
        </mxCell>
        <mxCell id="H6UfE3asRL7jeOaHzusS-3" value="CLASS_CATEGORY" style="rounded=0;whiteSpace=wrap;html=1;" vertex="1" parent="1">
          <mxGeometry x="-840" y="597" width="120" height="60" as="geometry" />
        </mxCell>
        <mxCell id="H6UfE3asRL7jeOaHzusS-4" value="PRODUCT" style="rounded=0;whiteSpace=wrap;html=1;" vertex="1" parent="1">
          <mxGeometry x="160" y="290" width="120" height="60" as="geometry" />
        </mxCell>
        <mxCell id="H6UfE3asRL7jeOaHzusS-5" value="CLASS" style="rounded=0;whiteSpace=wrap;html=1;" vertex="1" parent="1">
          <mxGeometry x="930" y="70" width="120" height="60" as="geometry" />
        </mxCell>
        <mxCell id="H6UfE3asRL7jeOaHzusS-6" value="CLASS_MODULE" style="rounded=0;whiteSpace=wrap;html=1;" vertex="1" parent="1">
          <mxGeometry x="480" y="537" width="120" height="60" as="geometry" />
        </mxCell>
        <mxCell id="H6UfE3asRL7jeOaHzusS-7" value="CLASS_MATERIAL" style="rounded=0;whiteSpace=wrap;html=1;" vertex="1" parent="1">
          <mxGeometry x="252" y="537" width="120" height="60" as="geometry" />
        </mxCell>
        <mxCell id="H6UfE3asRL7jeOaHzusS-8" value="PRETEST" style="rounded=0;whiteSpace=wrap;html=1;" vertex="1" parent="1">
          <mxGeometry x="-280" y="600" width="120" height="60" as="geometry" />
        </mxCell>
        <mxCell id="H6UfE3asRL7jeOaHzusS-9" value="PAYMENT" style="rounded=0;whiteSpace=wrap;html=1;" vertex="1" parent="1">
          <mxGeometry x="953" y="190" width="120" height="60" as="geometry" />
        </mxCell>
        <mxCell id="H6UfE3asRL7jeOaHzusS-10" value="ORDER" style="rounded=0;whiteSpace=wrap;html=1;" vertex="1" parent="1">
          <mxGeometry x="793" y="190" width="120" height="60" as="geometry" />
        </mxCell>
        <mxCell id="H6UfE3asRL7jeOaHzusS-11" value="REVIEW" style="rounded=0;whiteSpace=wrap;html=1;" vertex="1" parent="1">
          <mxGeometry x="600" y="320" width="120" height="60" as="geometry" />
        </mxCell>
        <mxCell id="H6UfE3asRL7jeOaHzusS-12" value="Memiliki" style="rhombus;whiteSpace=wrap;html=1;" vertex="1" parent="1">
          <mxGeometry x="610" y="200" width="80" height="80" as="geometry" />
        </mxCell>
        <mxCell id="H6UfE3asRL7jeOaHzusS-13" value="Memiliki / Membuat" style="rhombus;whiteSpace=wrap;html=1;" vertex="1" parent="1">
          <mxGeometry x="180" y="180" width="80" height="80" as="geometry" />
        </mxCell>
        <mxCell id="H6UfE3asRL7jeOaHzusS-14" value="Memiliki" style="rhombus;whiteSpace=wrap;html=1;" vertex="1" parent="1">
          <mxGeometry x="382" y="270" width="80" height="80" as="geometry" />
        </mxCell>
        <mxCell id="H6UfE3asRL7jeOaHzusS-15" value="Memiliki" style="rhombus;whiteSpace=wrap;html=1;" vertex="1" parent="1">
          <mxGeometry x="793" y="60" width="80" height="80" as="geometry" />
        </mxCell>
        <mxCell id="H6UfE3asRL7jeOaHzusS-16" value="Memiliki" style="rhombus;whiteSpace=wrap;html=1;" vertex="1" parent="1">
          <mxGeometry x="-230" y="425" width="80" height="80" as="geometry" />
        </mxCell>
        <mxCell id="H6UfE3asRL7jeOaHzusS-17" value="Memiliki" style="rhombus;whiteSpace=wrap;html=1;" vertex="1" parent="1">
          <mxGeometry x="500" y="430" width="80" height="80" as="geometry" />
        </mxCell>
        <mxCell id="H6UfE3asRL7jeOaHzusS-18" value="Memiliki" style="rhombus;whiteSpace=wrap;html=1;" vertex="1" parent="1">
          <mxGeometry x="260" y="430" width="80" height="80" as="geometry" />
        </mxCell>
        <mxCell id="H6UfE3asRL7jeOaHzusS-19" value="Memiliki" style="rhombus;whiteSpace=wrap;html=1;" vertex="1" parent="1">
          <mxGeometry x="-820" y="450" width="80" height="80" as="geometry" />
        </mxCell>
        <mxCell id="H6UfE3asRL7jeOaHzusS-25" value="Mendaftar" style="rhombus;whiteSpace=wrap;html=1;" vertex="1" parent="1">
          <mxGeometry x="382" y="80" width="80" height="80" as="geometry" />
        </mxCell>
        <mxCell id="H6UfE3asRL7jeOaHzusS-26" value="class_category_id" style="ellipse;whiteSpace=wrap;html=1;" vertex="1" parent="1">
          <mxGeometry x="-1030" y="627" width="130" height="60" as="geometry" />
        </mxCell>
        <mxCell id="H6UfE3asRL7jeOaHzusS-27" value="category_code" style="ellipse;whiteSpace=wrap;html=1;" vertex="1" parent="1">
          <mxGeometry x="-1010" y="687" width="130" height="60" as="geometry" />
        </mxCell>
        <mxCell id="H6UfE3asRL7jeOaHzusS-28" value="catgegory_desc" style="ellipse;whiteSpace=wrap;html=1;" vertex="1" parent="1">
          <mxGeometry x="-890" y="717" width="130" height="60" as="geometry" />
        </mxCell>
        <mxCell id="H6UfE3asRL7jeOaHzusS-29" value="created_at" style="ellipse;whiteSpace=wrap;html=1;" vertex="1" parent="1">
          <mxGeometry x="-760" y="710" width="130" height="60" as="geometry" />
        </mxCell>
        <mxCell id="H6UfE3asRL7jeOaHzusS-30" value="updated_at" style="ellipse;whiteSpace=wrap;html=1;" vertex="1" parent="1">
          <mxGeometry x="-660" y="667" width="130" height="60" as="geometry" />
        </mxCell>
        <mxCell id="H6UfE3asRL7jeOaHzusS-31" value="" style="endArrow=none;html=1;rounded=0;exitX=1;exitY=0.5;exitDx=0;exitDy=0;entryX=0;entryY=0.5;entryDx=0;entryDy=0;" edge="1" parent="1" source="H6UfE3asRL7jeOaHzusS-26" target="H6UfE3asRL7jeOaHzusS-3">
          <mxGeometry width="50" height="50" relative="1" as="geometry">
            <mxPoint x="-900" y="670" as="sourcePoint" />
            <mxPoint x="-850" y="620" as="targetPoint" />
          </mxGeometry>
        </mxCell>
        <mxCell id="H6UfE3asRL7jeOaHzusS-34" value="" style="endArrow=none;html=1;rounded=0;exitX=0.918;exitY=0.168;exitDx=0;exitDy=0;exitPerimeter=0;entryX=0;entryY=1;entryDx=0;entryDy=0;" edge="1" parent="1" source="H6UfE3asRL7jeOaHzusS-27" target="H6UfE3asRL7jeOaHzusS-3">
          <mxGeometry width="50" height="50" relative="1" as="geometry">
            <mxPoint x="-900" y="707" as="sourcePoint" />
            <mxPoint x="-850" y="657" as="targetPoint" />
          </mxGeometry>
        </mxCell>
        <mxCell id="H6UfE3asRL7jeOaHzusS-35" value="" style="endArrow=none;html=1;rounded=0;exitX=0.5;exitY=0;exitDx=0;exitDy=0;" edge="1" parent="1" source="H6UfE3asRL7jeOaHzusS-28">
          <mxGeometry width="50" height="50" relative="1" as="geometry">
            <mxPoint x="-850" y="707" as="sourcePoint" />
            <mxPoint x="-800" y="657" as="targetPoint" />
          </mxGeometry>
        </mxCell>
        <mxCell id="H6UfE3asRL7jeOaHzusS-36" value="" style="endArrow=none;html=1;rounded=0;entryX=1;entryY=1;entryDx=0;entryDy=0;" edge="1" parent="1" source="H6UfE3asRL7jeOaHzusS-29" target="H6UfE3asRL7jeOaHzusS-3">
          <mxGeometry width="50" height="50" relative="1" as="geometry">
            <mxPoint x="-780" y="707" as="sourcePoint" />
            <mxPoint x="-730" y="657" as="targetPoint" />
          </mxGeometry>
        </mxCell>
        <mxCell id="H6UfE3asRL7jeOaHzusS-37" value="" style="endArrow=none;html=1;rounded=0;entryX=0.436;entryY=0.002;entryDx=0;entryDy=0;entryPerimeter=0;exitX=1;exitY=0.5;exitDx=0;exitDy=0;" edge="1" parent="1" source="H6UfE3asRL7jeOaHzusS-3" target="H6UfE3asRL7jeOaHzusS-30">
          <mxGeometry width="50" height="50" relative="1" as="geometry">
            <mxPoint x="-710" y="630" as="sourcePoint" />
            <mxPoint x="-680" y="580" as="targetPoint" />
          </mxGeometry>
        </mxCell>
        <mxCell id="H6UfE3asRL7jeOaHzusS-38" value="pretest_id" style="ellipse;whiteSpace=wrap;html=1;" vertex="1" parent="1">
          <mxGeometry x="-470" y="545" width="130" height="43" as="geometry" />
        </mxCell>
        <mxCell id="H6UfE3asRL7jeOaHzusS-40" value="pretest_question" style="ellipse;whiteSpace=wrap;html=1;" vertex="1" parent="1">
          <mxGeometry x="-470" y="597" width="130" height="43" as="geometry" />
        </mxCell>
        <mxCell id="H6UfE3asRL7jeOaHzusS-41" value="pretest_answer" style="ellipse;whiteSpace=wrap;html=1;" vertex="1" parent="1">
          <mxGeometry x="-470" y="657" width="130" height="43" as="geometry" />
        </mxCell>
        <mxCell id="H6UfE3asRL7jeOaHzusS-42" value="pretest_option1" style="ellipse;whiteSpace=wrap;html=1;" vertex="1" parent="1">
          <mxGeometry x="-470" y="718.5" width="130" height="43" as="geometry" />
        </mxCell>
        <mxCell id="H6UfE3asRL7jeOaHzusS-44" value="pretest_option2" style="ellipse;whiteSpace=wrap;html=1;" vertex="1" parent="1">
          <mxGeometry x="-340" y="718.5" width="130" height="43" as="geometry" />
        </mxCell>
        <mxCell id="H6UfE3asRL7jeOaHzusS-45" value="pretest_option3" style="ellipse;whiteSpace=wrap;html=1;" vertex="1" parent="1">
          <mxGeometry x="-210" y="718.5" width="130" height="43" as="geometry" />
        </mxCell>
        <mxCell id="H6UfE3asRL7jeOaHzusS-46" value="pretest_option4" style="ellipse;whiteSpace=wrap;html=1;" vertex="1" parent="1">
          <mxGeometry x="-80" y="718.5" width="130" height="43" as="geometry" />
        </mxCell>
        <mxCell id="H6UfE3asRL7jeOaHzusS-47" value="is_last_question" style="ellipse;whiteSpace=wrap;html=1;" vertex="1" parent="1">
          <mxGeometry x="-80" y="667" width="130" height="43" as="geometry" />
        </mxCell>
        <mxCell id="H6UfE3asRL7jeOaHzusS-49" value="created_at" style="ellipse;whiteSpace=wrap;html=1;" vertex="1" parent="1">
          <mxGeometry x="-80" y="612" width="130" height="45" as="geometry" />
        </mxCell>
        <mxCell id="H6UfE3asRL7jeOaHzusS-50" value="updated_at" style="ellipse;whiteSpace=wrap;html=1;" vertex="1" parent="1">
          <mxGeometry x="-80" y="550" width="130" height="50" as="geometry" />
        </mxCell>
      </root>
    </mxGraphModel>
  </diagram>
</mxfile>
